# xmcd
#
# Track frame offsets:
#	150
#	15667
#	31626
#	47216
#	61760
#	77804
#	93583
#	106519
#	121588
#	138099
#
# Disc length: 2087 seconds
#
# Revision: 13
# Processed by: cddbd v1.5.2PL0 Copyright (c) Steve Scherf et al.
# Submitted via: EasyCDDAExtractor 15.3.0.1
#
DISCID=6908250a
DTITLE=Nek - Una Parte De Mi
DYEAR=2005
DGENRE=Latin
TTITLE0=A Contramano
TTITLE1=Para Ti Seria
TTITLE2=La Inquietud
TTITLE3=Noche Arriesgada
TTITLE4=Abrazame
TTITLE5=Daria Todo Lo Que Tengo Y Mas
TTITLE6=Ya Esta Bien Asi
TTITLE7=Una Parte De Mi
TTITLE8=No Vale Un Adios
TTITLE9=Y Estoy Aqui
EXTD=YEAR: 2005
EXTT0=
EXTT1=
EXTT2=
EXTT3=
EXTT4=
EXTT5=
EXTT6=
EXTT7=
EXTT8=
EXTT9=
PLAYORDER=
